<svg xmlns="http://www.w3.org/2000/svg" viewBox="0 0 1200 630">
  <defs>
    <linearGradient id="bg" x1="80" y1="48" x2="1110" y2="610" gradientUnits="userSpaceOnUse">
      <stop stop-color="#052e24"/>
      <stop offset=".55" stop-color="#0f766e"/>
      <stop offset="1" stop-color="#f59e0b"/>
    </linearGradient>
    <pattern id="grid" width="48" height="48" patternUnits="userSpaceOnUse">
      <path d="M48 0H0v48" fill="none" stroke="#ffffff" stroke-opacity=".08"/>
    </pattern>
  </defs>
  <rect width="1200" height="630" fill="url(#bg)"/>
  <rect width="1200" height="630" fill="url(#grid)"/>
  <circle cx="1030" cy="96" r="180" fill="#ffffff" opacity=".08"/>
  <circle cx="106" cy="548" r="220" fill="#022c22" opacity=".22"/>
  <g transform="translate(82 96)">
    <rect width="132" height="132" rx="34" fill="#f8faf7"/>
    <path d="M66 20 29 39v20h12v50h50V59h12V39L66 20Z" fill="#0f766e"/>
    <path d="M54 33c3 7 7 10 12 10s9-3 12-10" fill="none" stroke="#f8faf7" stroke-width="7" stroke-linecap="round"/>
    <path d="M45 64h42M45 79h42M45 94h42" stroke="#f8faf7" stroke-width="6" stroke-linecap="round"/>
    <rect x="80" y="88" width="36" height="22" rx="7" fill="#f59e0b"/>
    <text x="98" y="105" text-anchor="middle" font-family="Arial, Helvetica, sans-serif" font-size="15" font-weight="900" fill="#064e3b">YK</text>
  </g>
  <text x="82" y="300" font-family="Arial, Helvetica, sans-serif" font-size="82" font-weight="900" fill="#f8faf7">YK Apparels</text>
  <text x="88" y="368" font-family="Arial, Helvetica, sans-serif" font-size="34" font-weight="700" fill="#d1fae5">Production Management Suite</text>
  <text x="90" y="438" font-family="Arial, Helvetica, sans-serif" font-size="25" fill="#ecfdf5" opacity=".9">Orders, planning, production, QA, inventory, vendors, and dispatch.</text>
  <g transform="translate(86 500)" font-family="Arial, Helvetica, sans-serif" font-size="22" font-weight="700">
    <rect width="172" height="48" rx="24" fill="#f8faf7" opacity=".14"/>
    <text x="86" y="31" text-anchor="middle" fill="#f8faf7">Factory Ops</text>
    <rect x="192" width="158" height="48" rx="24" fill="#f8faf7" opacity=".14"/>
    <text x="271" y="31" text-anchor="middle" fill="#f8faf7">Tech Packs</text>
    <rect x="370" width="142" height="48" rx="24" fill="#f8faf7" opacity=".14"/>
    <text x="441" y="31" text-anchor="middle" fill="#f8faf7">Reports</text>
  </g>
</svg>
